<svg fill="none" height="512" viewBox="0 0 24 24" width="512" xmlns="http://www.w3.org/2000/svg"><g clip-rule="evenodd" fill-rule="evenodd"><path d="m12.6166.430821c-.3975-.149623-.8357-.149623-1.2332 0l-8.14765 3.067359c-.29225.11002-.48575.38963-.48575.70191v9.26251c0 2.0849.96347 4.0528 2.61024 5.3315l5.56646 4.3222c.6315.4903 1.5151.4903 2.1466 0l5.5665-4.3222c1.6467-1.2787 2.6102-3.2466 2.6102-5.3315v-9.26251c0-.31228-.1935-.59189-.4858-.70191z" fill="#4caf50"/><path d="m10.75 6.25c-.9665 0-1.75.7835-1.75 1.75v.5h-.5c-.9665 0-1.75.7835-1.75 1.75v2.5c0 .9665.7835 1.75 1.75 1.75h.5v.5c0 .9665.7835 1.75 1.75 1.75h2.5c.9665 0 1.75-.7835 1.75-1.75v-.5h.5c.9665 0 1.75-.7835 1.75-1.75v-2.5c0-.9665-.7835-1.75-1.75-1.75h-.5v-.5c0-.9665-.7835-1.75-1.75-1.75z" fill="#fafafa"/><g fill="#000"><path d="m12.0881 1.83439c-.0568-.02137-.1194-.02137-.1762 0l-7.6619 2.88449v8.74342c0 1.6216.74936 3.1522 2.03019 4.1467l5.56651 4.3222c.0902.0701.2164.0701.3066 0l5.5665-4.3222c1.2808-.9945 2.0302-2.5251 2.0302-4.1467v-8.74342zm-.7047-1.403813c.3975-.149623.8357-.149623 1.2332 0l8.1476 3.067353c.2923.11003.4858.38963.4858.70191v9.26246c0 2.0849-.9635 4.0528-2.6102 5.3315l-5.5665 4.3222c-.6315.4904-1.5151.4904-2.1466 0l-5.56646-4.3222c-1.64677-1.2787-2.61024-3.2466-2.61024-5.3315v-9.26246c0-.31228.1935-.59188.48575-.70191z"/><path d="m9 8c0-.9665.7835-1.75 1.75-1.75h2.5c.9665 0 1.75.7835 1.75 1.75v.5h.5c.9665 0 1.75.7835 1.75 1.75v2.5c0 .9665-.7835 1.75-1.75 1.75h-.5v.5c0 .9665-.7835 1.75-1.75 1.75h-2.5c-.9665 0-1.75-.7835-1.75-1.75v-.5h-.5c-.9665 0-1.75-.7835-1.75-1.75v-2.5c0-.9665.7835-1.75 1.75-1.75h.5zm1.75-.25c-.1381 0-.25.11193-.25.25v2h-2c-.13807 0-.25.1119-.25.25v2.5c0 .1381.11193.25.25.25h2v2c0 .1381.1119.25.25.25h2.5c.1381 0 .25-.1119.25-.25v-2h2c.1381 0 .25-.1119.25-.25v-2.5c0-.1381-.1119-.25-.25-.25h-2v-2c0-.13807-.1119-.25-.25-.25z"/></g></g></svg>